<svg xmlns="http://www.w3.org/2000/svg" viewBox="0 0 640 360" role="img" aria-label="Illustrative dashboard layout with KPI tiles, a monthly trend line, and a bar chart. No real data." font-family="Inter, Helvetica, Arial, sans-serif">
<rect width="640" height="360" fill="#FAF7F2"/>
<g fill="#FFFFFF" stroke="#E6DFD3">
 <rect x="24" y="24" width="138" height="62" rx="6"/><rect x="174" y="24" width="138" height="62" rx="6"/><rect x="324" y="24" width="138" height="62" rx="6"/><rect x="474" y="24" width="142" height="62" rx="6"/>
 <rect x="24" y="100" width="356" height="236" rx="6"/><rect x="392" y="100" width="224" height="236" rx="6"/>
</g>
<g fill="#22324A"><rect x="40" y="40" width="70" height="14" rx="3"/><rect x="190" y="40" width="56" height="14" rx="3"/><rect x="340" y="40" width="64" height="14" rx="3"/><rect x="490" y="40" width="78" height="14" rx="3"/></g>
<g fill="#CDBB9C"><rect x="40" y="64" width="96" height="7" rx="3"/><rect x="190" y="64" width="84" height="7" rx="3"/><rect x="340" y="64" width="100" height="7" rx="3"/><rect x="490" y="64" width="104" height="7" rx="3"/></g>
<text x="40" y="126" font-size="11" font-weight="600" letter-spacing="1.5" fill="#8A6A3B">HOURS BY MONTH</text>
<g stroke="#EFE7DA"><line x1="44" y1="300" x2="360" y2="300"/><line x1="44" y1="250" x2="360" y2="250"/><line x1="44" y1="200" x2="360" y2="200"/><line x1="44" y1="150" x2="360" y2="150"/></g>
<polyline points="50,296 80,214 110,204 140,214 170,206 200,244 230,240 260,170 290,250 320,258 350,286" fill="none" stroke="#A8804A" stroke-width="3" stroke-linejoin="round"/>
<g fill="#A8804A"><circle cx="50" cy="296" r="4"/><circle cx="80" cy="214" r="4"/><circle cx="110" cy="204" r="4"/><circle cx="140" cy="214" r="4"/><circle cx="170" cy="206" r="4"/><circle cx="200" cy="244" r="4"/><circle cx="230" cy="240" r="4"/><circle cx="260" cy="170" r="4"/><circle cx="290" cy="250" r="4"/><circle cx="320" cy="258" r="4"/><circle cx="350" cy="286" r="4"/></g>
<text x="408" y="126" font-size="11" font-weight="600" letter-spacing="1.5" fill="#8A6A3B">HOURS BY COUNCIL</text>
<g><rect x="408" y="150" width="60" height="22" rx="3" fill="#22324A"/><rect x="470" y="150" width="34" height="22" rx="3" fill="#CDBB9C"/>
<rect x="408" y="190" width="96" height="22" rx="3" fill="#22324A"/><rect x="506" y="190" width="30" height="22" rx="3" fill="#CDBB9C"/>
<rect x="408" y="230" width="132" height="22" rx="3" fill="#22324A"/><rect x="542" y="230" width="36" height="22" rx="3" fill="#CDBB9C"/>
<rect x="408" y="270" width="162" height="22" rx="3" fill="#22324A"/><rect x="572" y="270" width="28" height="22" rx="3" fill="#CDBB9C"/></g>
<text x="408" y="318" font-size="10" fill="#5B6472">Illustrative layout · no real data</text>
</svg>
