<svg xmlns="http://www.w3.org/2000/svg" viewBox="0 0 640 360" role="img" aria-label="Pipeline: 165,386 job postings are processed on AWS EC2 with PySpark, queried with Spark SQL and published as a Quarto report." font-family="Inter, Helvetica, Arial, sans-serif">
<rect width="640" height="360" fill="#FAF7F2"/>
<text x="32" y="52" font-size="12" font-weight="600" letter-spacing="2" fill="#8A6A3B">CLOUD DATA PIPELINE</text>
<text x="32" y="98" font-size="40" font-weight="700" fill="#1B2433">165,386</text>
<text x="32" y="122" font-size="14" fill="#5B6472">job postings processed in the cloud</text>
<g fill="#EFE7DA"><rect x="32" y="160" width="128" height="140" rx="8"/><rect x="180" y="160" width="128" height="140" rx="8"/><rect x="328" y="160" width="128" height="140" rx="8"/></g>
<rect x="476" y="160" width="132" height="140" rx="8" fill="#22324A"/>
<g fill="none" stroke="#22324A" stroke-width="2">
 <rect x="80" y="186" width="32" height="38" rx="3"/><line x1="87" y1="196" x2="105" y2="196"/><line x1="87" y1="205" x2="105" y2="205"/><line x1="87" y1="214" x2="99" y2="214"/>
 <path d="M226 218a12 12 0 0 1 2-23 16 16 0 0 1 30 4 10 10 0 0 1 2 19z"/>
</g>
<g fill="#22324A"><rect x="372" y="188" width="18" height="14" rx="2"/><rect x="394" y="188" width="18" height="14" rx="2"/><rect x="372" y="206" width="18" height="14" rx="2"/><rect x="394" y="206" width="18" height="14" rx="2"/></g>
<g fill="#CDBB9C"><rect x="520" y="204" width="10" height="18" rx="2"/><rect x="535" y="194" width="10" height="28" rx="2"/><rect x="550" y="188" width="10" height="34" rx="2"/><rect x="565" y="198" width="10" height="24" rx="2"/></g>
<g font-size="14" font-weight="700" text-anchor="middle">
 <text x="96" y="252" fill="#1B2433">Raw data</text><text x="244" y="252" fill="#1B2433">AWS EC2</text><text x="392" y="252" fill="#1B2433">Spark SQL</text><text x="542" y="252" fill="#FAF7F2">Quarto report</text>
</g>
<g font-size="11" text-anchor="middle"><text x="96" y="274" fill="#5B6472">job postings</text><text x="244" y="274" fill="#5B6472">runs PySpark</text><text x="392" y="274" fill="#5B6472">queries and joins</text><text x="542" y="274" fill="#CDBB9C">published results</text></g>
<g stroke="#A8804A" stroke-width="2.5" fill="none" stroke-linecap="round" stroke-linejoin="round"><path d="M163 230h14M171 224l6 6-6 6"/><path d="M311 230h14M319 224l6 6-6 6"/><path d="M459 230h14M467 224l6 6-6 6"/></g>
</svg>
